<?xml version="1.0" encoding="UTF-8" standalone="no"?>
<svg
   height="16px"
   viewBox="0 0 16 16"
   width="16px"
   version="1.1"
   id="svg1"
   sodipodi:docname="main-icon.svg"
   inkscape:version="1.3.2 (091e20ef0f, 2023-11-25, custom)"
   xmlns:inkscape="http://www.inkscape.org/namespaces/inkscape"
   xmlns:sodipodi="http://sodipodi.sourceforge.net/DTD/sodipodi-0.dtd"
   xmlns="http://www.w3.org/2000/svg"
   xmlns:svg="http://www.w3.org/2000/svg">
  <defs
     id="defs1" />
  <sodipodi:namedview
     id="namedview1"
     pagecolor="#ffffff"
     bordercolor="#999999"
     borderopacity="1"
     inkscape:showpageshadow="0"
     inkscape:pageopacity="0"
     inkscape:pagecheckerboard="0"
     inkscape:deskcolor="#d1d1d1"
     inkscape:zoom="46.625"
     inkscape:cx="8"
     inkscape:cy="8.0857909"
     inkscape:current-layer="svg1" />
  <rect
     style="fill:#fcdfb2;fill-opacity:1;stroke-width:0.0492402;stroke-linecap:round;stroke-linejoin:round;stroke-opacity:0.414202"
     id="rect1"
     width="16"
     height="16"
     x="0"
     y="0"
     ry="2.7009139" />
  <path
     d="m 2.5259927,11.128004 c 0,-0.207718 0.082477,-0.406273 0.2291022,-0.552899 0.3054691,-0.305469 0.8003287,-0.305469 1.1057979,0 l 1.0111031,1.011103 V 5.6539969 c 0,-0.4307113 0.3512896,-0.782001 0.782001,-0.782001 0.4307113,0 0.782001,0.3512897 0.782001,0.782001 v 5.9322111 l 1.0111032,-1.011103 c 0.3054691,-0.305469 0.8003287,-0.305469 1.1057978,0 0.3054692,0.305469 0.3054692,0.800329 0,1.105798 l -2.346003,2.346003 c -0.3054692,0.305469 -0.8003289,0.305469 -1.105798,0 L 2.7550949,11.680903 C 2.6084697,11.534278 2.5259927,11.335723 2.5259927,11.128004 Z M 7.2179989,4.8719959 c 0,-0.2016093 0.076367,-0.4001648 0.2291022,-0.5528991 l 2.346003,-2.346003 c 0.3054689,-0.3054693 0.8003289,-0.3054693 1.1057979,0 l 2.346003,2.346003 c 0.146625,0.1466253 0.229102,0.34518 0.229102,0.5528991 0,0.207719 -0.08248,0.4062737 -0.229102,0.552899 -0.305469,0.3054691 -0.800328,0.3054691 -1.105798,0 L 11.128004,4.4137917 v 5.9322123 c 0,0.43071 -0.35129,0.782 -0.782,0.782 -0.4307122,0 -0.7820019,-0.35129 -0.7820019,-0.782 V 4.4137917 L 8.5528989,5.4248949 c -0.3054691,0.3054691 -0.8003287,0.3054691 -1.1057978,0 C 7.294366,5.2721606 7.2179989,5.0736051 7.2179989,4.8719959 Z m 0,0"
     fill="#2e3436"
     id="path1"
     style="fill:#ad11ff;fill-opacity:1;stroke-width:0.782001" />
</svg>
